<svg xmlns="http://www.w3.org/2000/svg" aria-hidden="true" style="position:absolute;width:0;height:0;overflow:hidden"><defs><symbol id="icon-close-black-18dp-2-13" viewBox="0 0 32 32"><path d="M0 0h32v32H0V0z"/><path fill="#fff" d="M-3536-448h5760v2688h-5760V-448z" /><path d="M-3536-160h5760v2400h-5760V-160z" style="fill:var(--color3, #000)"/><path fill="#2e2f42" d="M-3536-160h5760v2400h-5760V-160z" opacity=".7" style="fill:var(--color4, #2e2f42)"/><path fill="#2e2f42" d="M-3536-448h5760v2708h-5760V-448z" opacity=".4" style="fill:var(--color4, #2e2f42)"/><path fill="#fcfcfc" d="M-1456-128H144c8.837 0 16 7.163 16 16v2304c0 8.837-7.163 16-16 16h-1600c-8.837 0-16-7.163-16-16V-112c0-8.837 7.163-16 16-16z"/><path d="M64 16c0 26.51-21.49 48-48 48s-48-21.49-48-48 21.49-48 48-48 48 21.49 48 48z" style="fill:var(--color6, #e7e9fc)"/><path fill="none" stroke="#000" stroke-width="4" d="M62 16c0 25.405-20.595 46-46 46s-46-20.595-46-46 20.595-46 46-46S62-9.405 62 16z"/><path d="M32 3.223 28.777 0 16 12.777 3.223 0 0 3.223 12.777 16 0 28.777 3.223 32 16 19.223 28.777 32 32 28.777 19.223 16 32 3.223z"/></symbol></defs></svg>